{
  "asset": {
    "version": "2.0",
    "generator": "gltfeditor.com"
  },
  "buffers": [
    {
      "uri": "data:application/octet-stream;base64,",
      "byteLength": 178424
    }
  ],
  "bufferViews": [
    {
      "buffer": 0,
      "byteLength": 66752,
      "byteOffset": 111672,
      "target": 34962,
      "byteStride": 16
    },
    {
      "buffer": 0,
      "byteLength": 100128,
      "byteOffset": 11544,
      "target": 34962,
      "byteStride": 12
    },
    {
      "buffer": 0,
      "byteLength": 11544,
      "byteOffset": 0,
      "target": 34963
    }
  ],
  "accessors": [
    {
      "bufferView": 0,
      "byteOffset": 0,
      "componentType": 5126,
      "normalized": false,
      "count": 4172,
      "max": [
        1,
        1,
        1,
        1
      ],
      "min": [
        0.006584956776350737,
        0.006584956776350737,
        0.006584956776350737,
        1
      ],
      "type": "VEC4"
    },
    {
      "bufferView": 1,
      "byteOffset": 50064,
      "componentType": 5126,
      "normalized": false,
      "count": 4172,
      "max": [
        0.9996575713157654,
        0.999850332736969,
        0.999744713306427
      ],
      "min": [
        -0.9996623396873474,
        -0.9998325705528259,
        -0.9999452233314514
      ],
      "type": "VEC3"
    },
    {
      "bufferView": 1,
      "byteOffset": 0,
      "componentType": 5126,
      "normalized": false,
      "count": 4172,
      "max": [
        0.29727232456207275,
        1.778878092765808,
        0.26938754320144653
      ],
      "min": [
        -0.16098350286483765,
        0.936881959438324,
        -0.9320833683013916
      ],
      "type": "VEC3"
    },
    {
      "bufferView": 2,
      "byteOffset": 0,
      "componentType": 5123,
      "normalized": false,
      "count": 5772,
      "max": [
        4171
      ],
      "min": [
        0
      ],
      "type": "SCALAR"
    }
  ],
  "scene": 0,
  "scenes": [
    {
      "nodes": [
        3,
        4
      ]
    }
  ],
  "nodes": [
    {
      "name": "node_MeshObject676473856-PolyPaper8",
      "mesh": 0
    },
    {
      "children": [
        0
      ],
      "matrix": [
        1,
        0,
        0,
        0,
        0,
        1,
        0,
        0,
        0,
        0,
        1,
        0,
        -0.0813707709312439,
        -1.3995387554168701,
        0.6376998424530029,
        1
      ]
    },
    {
      "children": [
        1
      ],
      "matrix": [
        1,
        0,
        0,
        0,
        0,
        1,
        0,
        0,
        0,
        0,
        1,
        0,
        0.0813707709312439,
        1.3995387554168701,
        -0.6376998424530029,
        1
      ]
    },
    {
      "children": [
        2
      ]
    },
    {
      "name": "keyLightNode",
      "matrix": [
        0,
        0,
        0,
        0,
        0,
        0,
        0,
        0,
        -0.514782726764679,
        1.029565453529358,
        -0.514782726764679,
        0,
        -1.2004497051239014,
        3.9855425357818604,
        -1.998936653137207,
        1
      ]
    }
  ],
  "meshes": [
    {
      "primitives": [
        {
          "attributes": {
            "COLOR_0": 0,
            "NORMAL": 1,
            "POSITION": 2
          },
          "material": 0,
          "mode": 4,
          "indices": 3
        }
      ]
    }
  ],
  "materials": [
    {
      "pbrMetallicRoughness": {
        "baseColorFactor": [
          1,
          1,
          1,
          1
        ],
        "metallicFactor": 0,
        "roughnessFactor": 0.6
      },
      "emissiveFactor": [
        0,
        0,
        0
      ],
      "alphaMode": "OPAQUE",
      "doubleSided": false
    }
  ]
}